<svg xmlns="http://www.w3.org/2000/svg" xmlns:xlink="http://www.w3.org/1999/xlink" xml:space="preserve" style="shape-rendering:geometricPrecision;text-rendering:geometricPrecision;image-rendering:optimizeQuality;" viewBox="0 0 7.8492 9.375250000000001" x="0px" y="0px" fill-rule="evenodd" clip-rule="evenodd"><defs><style type="text/css">
   
    .fil0 {fill:black}
   
  </style></defs><g><path class="fil0" d="M1.45328 3.94895l4.94274 0 0 0.233997 -4.36494 0 0 0.254597c0,0.142398 -0.216697,0.142398 -0.216697,0l0 -0.254597 -0.361095 0 0 -0.233997zm-0.717191 -1.20238l0.80479 0c0.223397,-1.18288 1.00809,-2.74657 2.39217,-2.74657 1.38408,0 2.16877,1.56368 2.39207,2.74657l0.78809 0c0.404295,0 0.735991,0.331596 0.735991,0.736091l0 3.28146c0,0.404395 -0.331596,0.736091 -0.735991,0.736091l-6.37712 0c-0.404395,0 -0.736091,-0.331596 -0.736091,-0.736091l0 -3.28146c0,-0.393195 0.342096,-0.736091 0.736091,-0.736091zm-0.459494 4.21975c2.42197,-0.670391 4.87684,-0.697891 7.29631,-0.000699991 0.102299,-0.232497 0.0422995,-3.00266 0.0422995,-3.48296 0,-0.276496 -0.225497,-0.502094 -0.501994,-0.502094l-0.74899 0c0.0133998,0.0926988 0.0244997,0.186598 0.0334996,0.281696l-0.234897 0c-0.00919988,-0.0951988 -0.0208997,-0.189198 -0.0348996,-0.281696l-4.38974 0c-0.0139998,0.0924988 -0.0256997,0.186498 -0.0349996,0.281696l-0.234797 0c0.00899989,-0.0950988 0.0200997,-0.188998 0.0334996,-0.281696l-0.76579 0c-0.276496,0 -0.502094,0.225597 -0.502094,0.502094 0,0.480094 -0.0599992,3.25146 0.0425995,3.48366zm7.13991 0.197397c-2.31057,-0.647992 -4.66914,-0.622192 -6.98191,0.00139998 0.0838989,0.0633992 0.188398,0.101099 0.301496,0.101099l6.37712 0c0.113799,0 0.219097,-0.0382995 0.303296,-0.102499zm-5.63763 -4.41714l4.30835 0c-0.207597,-1.05089 -0.914888,-2.51257 -2.15417,-2.51257 -1.23928,0 -1.94658,1.46168 -2.15417,2.51257z"/></g><text x="0" y="22.5002" fill="#000000" font-size="5px" font-weight="bold" font-family="'Helvetica Neue', Helvetica, Arial-Unicode, Arial, Sans-serif">Created by ENDRU DESIGN</text><text x="0" y="27.5002" fill="#000000" font-size="5px" font-weight="bold" font-family="'Helvetica Neue', Helvetica, Arial-Unicode, Arial, Sans-serif">from the Noun Project</text></svg>