<svg width="8" height="8" viewBox="0 0 8 8" fill="none" xmlns="http://www.w3.org/2000/svg">
<path fill-rule="evenodd" clip-rule="evenodd" d="M1.45328 3.94895H6.39602V4.18295H2.03108V4.43754C2.03108 4.57994 1.81439 4.57994 1.81439 4.43754V4.18295H1.45329L1.45328 3.94895ZM0.736091 2.74657H1.54088C1.76428 1.56369 2.54897 0 3.93305 0C5.31713 0 6.10182 1.56368 6.32512 2.74657H7.11321C7.51751 2.74657 7.8492 3.07817 7.8492 3.48266V6.76412C7.8492 7.16852 7.51761 7.50021 7.11321 7.50021H0.736091C0.331696 7.50021 0 7.16862 0 6.76412V3.48266C0 3.08947 0.342096 2.74657 0.736091 2.74657ZM0.276597 6.96632C2.69857 6.29593 5.15344 6.26843 7.57291 6.96562C7.67521 6.73312 7.61521 3.96296 7.61521 3.48266C7.61521 3.20616 7.38971 2.98057 7.11321 2.98057H6.36422C6.37762 3.07326 6.38872 3.16716 6.39772 3.26226H6.16283C6.15363 3.16706 6.14193 3.07306 6.12793 2.98057H1.73819C1.72419 3.07306 1.71249 3.16706 1.70319 3.26226H1.46839C1.47739 3.16716 1.48849 3.07326 1.50189 2.98057H0.736099C0.459603 2.98057 0.234004 3.20616 0.234004 3.48266C0.234004 3.96275 0.173998 6.73412 0.276597 6.96632ZM7.41651 7.16372C5.10594 6.51572 2.74737 6.54152 0.434597 7.16512C0.518496 7.22852 0.622995 7.26622 0.736093 7.26622H7.11321C7.22701 7.26622 7.33231 7.22792 7.41651 7.16372ZM1.77888 2.74658H6.08723C5.87963 1.69569 5.17234 0.234007 3.93306 0.234007C2.69378 0.234007 1.98647 1.69569 1.77888 2.74658Z" fill="white"/>
</svg>
