<svg width="34" height="36" viewBox="0 0 34 36" fill="none" xmlns="http://www.w3.org/2000/svg">
<path d="M17.289 12.3852C16.4973 12.3852 16.1015 11.9852 16.1015 11.1852V10.4477C16.1015 9.66433 16.4973 9.27267 17.289 9.27267H18.014C18.7723 9.27267 19.1515 9.66433 19.1515 10.4477V11.1852C19.1515 11.9852 18.7723 12.3852 18.014 12.3852H17.289ZM17.639 27.1102C16.939 27.1102 16.589 26.7602 16.589 26.0602V15.4852C16.589 14.7852 16.939 14.4352 17.639 14.4352C18.339 14.4352 18.689 14.7852 18.689 15.4852V26.0602C18.689 26.7602 18.339 27.1102 17.639 27.1102Z" fill="#1E1E1E"/>
<path d="M33.2605 16.6314C33.2605 25.4464 26.1081 32.5932 17.2842 32.5932C8.46029 32.5932 1.30786 25.4464 1.30786 16.6314C1.30786 7.81628 8.46029 0.669495 17.2842 0.669495C26.1081 0.669495 33.2605 7.81628 33.2605 16.6314Z" stroke="black"/>
</svg>
